<?xml version="1.0" encoding="UTF-8"?>
<svg version="1.1" xmlns="http://www.w3.org/2000/svg" width="1131" height="1600">
<path d="M0 0 C373.23 0 746.46 0 1131 0 C1131 528 1131 1056 1131 1600 C757.77 1600 384.54 1600 0 1600 C0 1072 0 544 0 0 Z " fill="#FEFEFE" transform="translate(0,0)"/>
<path d="M0 0 C96.03 0 192.06 0 291 0 C291 65.67 291 131.34 291 199 C301.56 199 312.12 199 323 199 C323 188.11 323 177.22 323 166 C339.83 166 356.66 166 374 166 C374 176.89 374 187.78 374 199 C384.56 199 395.12 199 406 199 C406 133.33 406 67.66 406 0 C502.03 0 598.06 0 697 0 C697.7984298 102.99744473 698 205.99946063 698 309 C467.66 309 237.32 309 0 309 C0 207.03 0 105.06 0 0 Z " fill="#F9F9F9" transform="translate(241,666)"/>
<path d="M0 0 C96.03 0 192.06 0 291 0 C291 65.67 291 131.34 291 199 C301.56 199 312.12 199 323 199 C323 188.11 323 177.22 323 166 C339.83 166 356.66 166 374 166 C374 176.89 374 187.78 374 199 C384.56 199 395.12 199 406 199 C406 133.33 406 67.66 406 0 C502.03 0 598.06 0 697 0 C697.7984298 102.99744473 698 205.99946063 698 309 C467.66 309 237.32 309 0 309 C0 207.03 0 105.06 0 0 Z M267 2 C267 20.81 267 39.62 267 59 C200.01 59 133.02 59 64 59 C64 61.64 64 64.28 64 67 C63.34 67 62.68 67 62 67 C62 64.36 62 61.72 62 59 C42.2 59 22.4 59 2 59 C2 63.29 2 67.58 2 72 C20.81 72 39.62 72 59 72 C59 86.19 59 100.38 59 115 C40.19 115 21.38 115 2 115 C2 119.95 2 124.9 2 130 C20.81 130 39.62 130 59 130 C59 135.61 59 141.22 59 147 C47.45 147 35.9 147 24 147 C24 155.58 24 164.16 24 173 C23.34 173.33 22.68 173.66 22 174 C22 164.43 22 154.86 22 145 C33.55 145 45.1 145 57 145 C57 140.71 57 136.42 57 132 C38.85 132 20.7 132 2 132 C2 156.42 2 180.84 2 206 C20.81 206 39.62 206 59 206 C59 217.88 59 229.76 59 242 C40.19 242 21.38 242 2 242 C2 246.62 2 251.24 2 256 C20.15 256 38.3 256 57 256 C57.33 253.03 57.66 250.06 58 247 C58.495 251.455 58.495 251.455 59 256 C127.64 256 196.28 256 267 256 C267 272.83 267 289.66 267 307 C273.93 307 280.86 307 288 307 C288 290.17 288 273.34 288 256 C327.93 256 367.86 256 409 256 C409 272.83 409 289.66 409 307 C415.93 307 422.86 307 430 307 C430 290.17 430 273.34 430 256 C502.27 256 574.54 256 649 256 C649 253.69 649 251.38 649 249 C649.66 249 650.32 249 651 249 C651 251.31 651 253.62 651 256 C665.85 256 680.7 256 696 256 C696 251.05 696 246.1 696 241 C672.9 241 649.8 241 626 241 C626 229.78 626 218.56 626 207 C649.1 207 672.2 207 696 207 C696 200.73 696 194.46 696 188 C672.9 188 649.8 188 626 188 C626.33 182.39 626.66 176.78 627 171 C643.17 170.67 659.34 170.34 676 170 C676 163.07 676 156.14 676 149 C676.33 148.67 676.66 148.34 677 148 C677 155.92 677 163.84 677 172 C660.83 172 644.66 172 628 172 C628 176.95 628 181.9 628 187 C650.11 187 672.22 187 695 187 C695 169.18 695 151.36 695 133 C672.23 133 649.46 133 626 133 C626 132.34 626 131.68 626 131 C648.77 131 671.54 131 695 131 C695 122.75 695 114.5 695 106 C672.23 106 649.46 106 626 106 C626 94.78 626 83.56 626 72 C648.77 72 671.54 72 695 72 C695 67.71 695 63.42 695 59 C680.48 59 665.96 59 651 59 C651 60.98 651 62.96 651 65 C650.34 65 649.68 65 649 65 C649 63.02 649 61.04 649 59 C576.73 59 504.46 59 430 59 C430 40.19 430 21.38 430 2 C422.41 2 414.82 2 407 2 C407 67.67 407 133.34 407 201 C392.15 201 377.3 201 362 201 C362 193.41 362 185.82 362 178 C353.09 178 344.18 178 335 178 C335 185.59 335 193.18 335 201 C334.34 201 333.68 201 333 201 C333 192.75 333 184.5 333 176 C342.9 176 352.8 176 363 176 C363 183.59 363 191.18 363 199 C365.97 199 368.94 199 372 199 C372 188.77 372 178.54 372 168 C356.16 168 340.32 168 324 168 C324 178.89 324 189.78 324 201 C312.78 201 301.56 201 290 201 C290 135.33 290 69.66 290 2 C282.41 2 274.82 2 267 2 Z " fill="#343434" transform="translate(241,666)"/>
<path d="M0 0 C19.47 0 38.94 0 59 0 C59 5.28 59 10.56 59 16 C47.45 16 35.9 16 24 16 C24 24.58 24 33.16 24 42 C34.89 42 45.78 42 57 42 C57 42.33 57 42.66 57 43 C45.45 43 33.9 43 22 43 C22 33.43 22 23.86 22 14 C33.55 14 45.1 14 57 14 C57 9.71 57 5.42 57 1 C38.85 1 20.7 1 2 1 C2 19.15 2 37.3 2 56 C20.81 56 39.62 56 59 56 C59 56.33 59 56.66 59 57 C40.19 57 21.38 57 2 57 C2 62.94 2 68.88 2 75 C20.81 75 39.62 75 59 75 C59 86.88 59 98.76 59 111 C40.19 111 21.38 111 2 111 C2 115.62 2 120.24 2 125 C20.15 125 38.3 125 57 125 C57 122.03 57 119.06 57 116 C57.66 115.67 58.32 115.34 59 115 C59 118.3 59 121.6 59 125 C127.64 125 196.28 125 267 125 C267 141.83 267 158.66 267 176 C273.93 176 280.86 176 288 176 C288 159.17 288 142.34 288 125 C327.93 125 367.86 125 409 125 C409 141.83 409 158.66 409 176 C415.93 176 422.86 176 430 176 C430 159.5 430 143 430 126 C456.78220007 125.97740691 483.56439239 125.95899394 510.34659958 125.94818783 C522.78266491 125.9430365 535.2187239 125.93601599 547.65478516 125.92456055 C558.4968956 125.91457815 569.33900143 125.90813811 580.18111634 125.90591151 C585.91931112 125.90461044 591.65749274 125.90156286 597.39568329 125.89426994 C602.80299674 125.88745361 608.21029168 125.88539442 613.61760902 125.88689232 C615.59601505 125.88661851 617.57442173 125.88464683 619.55282402 125.88079453 C622.2680467 125.87576939 624.9832008 125.87703382 627.69842529 125.87974548 C628.46889749 125.87683264 629.23936969 125.8739198 630.03318954 125.87091869 C636.44578794 125.88805769 642.54011971 126.46167664 649 127 C649 143.17 649 159.34 649 176 C601.48 176 553.96 176 505 176 C505 159.83 505 143.66 505 127 C504.34 127 503.68 127 503 127 C503 143.17 503 159.34 503 176 C449.01039272 176.97155446 395.03549796 177.13784583 341.03809327 177.10353777 C329.1797072 177.09621234 317.32132226 177.09487236 305.46293425 177.09374207 C284.33311624 177.09157893 263.2033022 177.08499512 242.07348633 177.07543945 C221.60571309 177.06619309 201.13794094 177.0591481 180.67016602 177.05493164 C179.39843729 177.05466892 178.12670857 177.05440619 176.81644262 177.05413551 C170.43353889 177.05283002 164.05063515 177.05156642 157.6677314 177.05032361 C105.11181741 177.04003671 52.55591079 177.02164617 0 177 C0 118.59 0 60.18 0 0 Z " fill="#3F3F3F" transform="translate(241,797)"/>
<path d="M0 0 C66.33 0 132.66 0 201 0 C201 18.15 201 36.3 201 55 C134.67 55 68.34 55 0 55 C0 36.85 0 18.7 0 0 Z " fill="#FEFEFE" transform="translate(305,668)"/>
<path d="M0 0 C19.47 0 38.94 0 59 0 C59 19.47 59 38.94 59 59 C60.32 59.33 61.64 59.66 63 60 C42.54 60 22.08 60 1 60 C1 78.15 1 96.3 1 115 C21.79 115 42.58 115 64 115 C64 115.33 64 115.66 64 116 C62.35 116 60.7 116 59 116 C59 133.49 59 150.98 59 169 C39.53 169 20.06 169 0 169 C0 113.23 0 57.46 0 0 Z " fill="#F8F8F8" transform="translate(328,738)"/>
<path d="M0 0 C33.66 0 67.32 0 102 0 C102 18.81 102 37.62 102 57 C68.34 57 34.68 57 0 57 C0 38.19 0 19.38 0 0 Z " fill="#FCFCFC" transform="translate(672,740)"/>
<path d="M0 0 C33.33 0 66.66 0 101 0 C101 18.48 101 36.96 101 56 C67.67 56 34.34 56 0 56 C0 37.52 0 19.04 0 0 Z " fill="#FEFEFE" transform="translate(405,740)"/>
<path d="M0 0 C33.66 0 67.32 0 102 0 C102 17.16 102 34.32 102 52 C68.34 52 34.68 52 0 52 C0 34.84 0 17.68 0 0 Z " fill="#FCFCFC" transform="translate(672,854)"/>
<path d="M0 0 C33.33 0 66.66 0 101 0 C101 17.16 101 34.32 101 52 C67.67 52 34.34 52 0 52 C0 34.84 0 17.68 0 0 Z " fill="#FDFDFD" transform="translate(405,854)"/>
<path d="M0 0 C23.76 0 47.52 0 72 0 C72 18.15 72 36.3 72 55 C48.24 55 24.48 55 0 55 C0 36.85 0 18.7 0 0 Z " fill="#FDFDFD" transform="translate(672,668)"/>
<path d="M0 0 C23.43 0 46.86 0 71 0 C71 18.15 71 36.3 71 55 C47.57 55 24.14 55 0 55 C0 36.85 0 18.7 0 0 Z " fill="#FEFEFE" transform="translate(819,668)"/>
<path d="M0 0 C23.43 0 46.86 0 71 0 C71 18.15 71 36.3 71 55 C47.57 55 24.14 55 0 55 C0 36.85 0 18.7 0 0 Z " fill="#FEFEFE" transform="translate(746,668)"/>
<path d="M0 0 C25.41 0 50.82 0 77 0 C77 16.17 77 32.34 77 49 C51.59 49 26.18 49 0 49 C0 32.83 0 16.66 0 0 Z " fill="#FCFCFC" transform="translate(571,924)"/>
<path d="M0 0 C23.76 0 47.52 0 72 0 C72 16.17 72 32.34 72 49 C48.24 49 24.48 49 0 49 C0 32.83 0 16.66 0 0 Z " fill="#FCFCFC" transform="translate(818,924)"/>
<path d="M0 0 C23.76 0 47.52 0 72 0 C72 16.17 72 32.34 72 49 C48.24 49 24.48 49 0 49 C0 32.83 0 16.66 0 0 Z " fill="#FDFDFD" transform="translate(672,924)"/>
<path d="M0 0 C23.43 0 46.86 0 71 0 C71 16.17 71 32.34 71 49 C47.57 49 24.14 49 0 49 C0 32.83 0 16.66 0 0 Z " fill="#FDFDFD" transform="translate(746,924)"/>
<path d="M0 0 C22.77 0 45.54 0 69 0 C69 16.17 69 32.34 69 49 C46.23 49 23.46 49 0 49 C0 32.83 0 16.66 0 0 Z " fill="#FDFDFD" transform="translate(300,924)"/>
<path d="M0 0 C19.8 0 39.6 0 60 0 C60 18.15 60 36.3 60 55 C40.2 55 20.4 55 0 55 C0 36.85 0 18.7 0 0 Z " fill="#FEFEFE" transform="translate(243,668)"/>
<path d="M0 0 C22.11 0 44.22 0 67 0 C67 16.17 67 32.34 67 49 C44.89 49 22.78 49 0 49 C0 32.83 0 16.66 0 0 Z " fill="#FDFDFD" transform="translate(439,924)"/>
<path d="M0 0 C18.15 0 36.3 0 55 0 C55 18.81 55 37.62 55 57 C36.85 57 18.7 57 0 57 C0 38.19 0 19.38 0 0 Z " fill="#FCFCFC" transform="translate(330,740)"/>
<path d="M0 0 C18.15 0 36.3 0 55 0 C55 18.48 55 36.96 55 56 C36.85 56 18.7 56 0 56 C0 37.52 0 19.04 0 0 Z " fill="#FEFEFE" transform="translate(794,740)"/>
<path d="M0 0 C18.48 0 36.96 0 56 0 C56 17.16 56 34.32 56 52 C37.52 52 19.04 52 0 52 C0 34.84 0 17.68 0 0 Z " fill="#FBFBFB" transform="translate(793,854)"/>
<path d="M0 0 C18.48 0 36.96 0 56 0 C56 16.17 56 32.34 56 49 C37.52 49 19.04 49 0 49 C0 32.83 0 16.66 0 0 Z " fill="#FCFCFC" transform="translate(243,924)"/>
<path d="M0 0 C14.52 0 29.04 0 44 0 C44 18.15 44 36.3 44 55 C29.48 55 14.96 55 0 55 C0 36.85 0 18.7 0 0 Z " fill="#FEFEFE" transform="translate(892,668)"/>
<path d="M0 0 C14.85 0 29.7 0 45 0 C45 16.17 45 32.34 45 49 C30.15 49 15.3 49 0 49 C0 32.83 0 16.66 0 0 Z " fill="#FDFDFD" transform="translate(892,924)"/>
<path d="M0 0 C22.44 0 44.88 0 68 0 C68 10.56 68 21.12 68 32 C45.56 32 23.12 32 0 32 C0 21.44 0 10.88 0 0 Z " fill="#FBFBFB" transform="translate(869,874)"/>
<path d="M0 0 C18.15 0 36.3 0 55 0 C55 12.87 55 25.74 55 39 C36.85 39 18.7 39 0 39 C0 26.13 0 13.26 0 0 Z " fill="#FEFEFE" transform="translate(243,740)"/>
<path d="M0 0 C22.11 0 44.22 0 67 0 C67 9.9 67 19.8 67 30 C44.89 30 22.78 30 0 30 C0 20.1 0 10.2 0 0 Z " fill="#FDFDFD" transform="translate(869,740)"/>
<path d="M0 0 C13.2 0 26.4 0 40 0 C40 16.17 40 32.34 40 49 C26.8 49 13.6 49 0 49 C0 32.83 0 16.66 0 0 Z " fill="#F9F9F9" transform="translate(530,924)"/>
<path d="M0 0 C18.48 0 36.96 0 56 0 C56 10.56 56 21.12 56 32 C37.52 32 19.04 32 0 32 C0 21.44 0 10.88 0 0 Z " fill="#FCFCFC" transform="translate(243,874)"/>
<path d="M0 0 C0.33 0 0.66 0 1 0 C1 59.4 1 118.8 1 180 C-229.34 180 -459.68 180 -697 180 C-697 179.67 -697 179.34 -697 179 C-643.17430153 178.87161699 -589.34860098 178.74413674 -535.52289763 178.61781773 C-529.12520973 178.60280278 -522.72752185 178.58778059 -516.32983398 178.57275391 C-514.41985167 178.56826798 -514.41985167 178.56826798 -512.47128386 178.56369144 C-492.02682555 178.51565694 -471.58236866 178.46703927 -451.13791227 178.41819459 C-430.05944955 178.3678486 -408.98098536 178.3181559 -387.90251976 178.26903296 C-376.10550299 178.24152247 -364.30848703 178.21373571 -352.5114727 178.18519592 C-299.67419666 178.05752469 -246.83744163 177.9660397 -194 178 C-194 161.83 -194 145.66 -194 129 C-193.34 129 -192.68 129 -192 129 C-192 145.17 -192 161.34 -192 178 C-168.57 178 -145.14 178 -121 178 C-121 163.15 -121 148.3 -121 133 C-120.67 133 -120.34 133 -120 133 C-120 147.85 -120 162.7 -120 178 C-96.24 178 -72.48 178 -48 178 C-48 161.83 -48 145.66 -48 129 C-120.27 128.67 -192.54 128.34 -267 128 C-267 127.67 -267 127.34 -267 127 C-194.73 127 -122.46 127 -48 127 C-48 124.69 -48 122.38 -48 120 C-47.34 120 -46.68 120 -46 120 C-46 122.31 -46 124.62 -46 127 C-31.15 127 -16.3 127 -1 127 C-0.67 85.09 -0.34 43.18 0 0 Z M-46 129 C-46 145.17 -46 161.34 -46 178 C-31.15 178 -16.3 178 -1 178 C-1 161.83 -1 145.66 -1 129 C-15.85 129 -30.7 129 -46 129 Z " fill="#757575" transform="translate(938,795)"/>
<path d="M0 0 C96.03 0 192.06 0 291 0 C291 0.33 291 0.66 291 1 C147.945 1.495 147.945 1.495 2 2 C2 20.15 2 38.3 2 57 C21.8 57 41.6 57 62 57 C62 38.85 62 20.7 62 2 C62.66 2 63.32 2 64 2 C64 20.15 64 38.3 64 57 C130.33 57 196.66 57 265 57 C265 38.85 265 20.7 265 2 C265.66 2 266.32 2 267 2 C267 20.81 267 39.62 267 59 C200.01 59 133.02 59 64 59 C64 61.64 64 64.28 64 67 C63.34 67 62.68 67 62 67 C62 64.36 62 61.72 62 59 C42.2 59 22.4 59 2 59 C2 63.29 2 67.58 2 72 C20.81 72 39.62 72 59 72 C59 86.19 59 100.38 59 115 C40.19 115 21.38 115 2 115 C2 119.95 2 124.9 2 130 C20.81 130 39.62 130 59 130 C59 130.33 59 130.66 59 131 C39.53 131 20.06 131 0 131 C0 87.77 0 44.54 0 0 Z M2 74 C2 86.87 2 99.74 2 113 C20.15 113 38.3 113 57 113 C57 100.13 57 87.26 57 74 C38.85 74 20.7 74 2 74 Z " fill="#575757" transform="translate(241,666)"/>
<path d="M0 0 C10.89 0 21.78 0 33 0 C33 16.17 33 32.34 33 49 C22.11 49 11.22 49 0 49 C0 32.83 0 16.66 0 0 Z " fill="#FCFCFC" transform="translate(404,924)"/>
<path d="M0 0 C10.56 0 21.12 0 32 0 C32 16.17 32 32.34 32 49 C21.44 49 10.88 49 0 49 C0 32.83 0 16.66 0 0 Z " fill="#FBFBFB" transform="translate(371,924)"/>
<path d="M0 0 C34.65 0 69.3 0 105 0 C105 55.77 105 111.54 105 169 C70.35 169 35.7 169 0 169 C0 151.51 0 134.02 0 116 C-1.65 116 -3.3 116 -5 116 C-5 115.67 -5 115.34 -5 115 C30.64 115 66.28 115 103 115 C103 96.85 103 78.7 103 60 C67.36 60 31.72 60 -5 60 C-5 59.67 -5 59.34 -5 59 C-3.35 59 -1.7 59 0 59 C0 39.53 0 20.06 0 0 Z M2 2 C2 20.48 2 38.96 2 58 C35.33 58 68.66 58 103 58 C103 39.52 103 21.04 103 2 C69.67 2 36.34 2 2 2 Z M2 116 C2 133.16 2 150.32 2 168 C35.33 168 68.66 168 103 168 C103 150.84 103 133.68 103 116 C69.67 116 36.34 116 2 116 Z " fill="#515151" transform="translate(403,738)"/>
<path d="M0 0 C19.47 0 38.94 0 59 0 C59 5.28 59 10.56 59 16 C47.45 16 35.9 16 24 16 C24 24.58 24 33.16 24 42 C34.89 42 45.78 42 57 42 C57 42.33 57 42.66 57 43 C45.45 43 33.9 43 22 43 C22 33.43 22 23.86 22 14 C33.55 14 45.1 14 57 14 C57 9.71 57 5.42 57 1 C38.85 1 20.7 1 2 1 C2 19.15 2 37.3 2 56 C20.81 56 39.62 56 59 56 C59 56.33 59 56.66 59 57 C40.19 57 21.38 57 2 57 C2 62.94 2 68.88 2 75 C20.81 75 39.62 75 59 75 C59 86.88 59 98.76 59 111 C40.19 111 21.38 111 2 111 C2 115.62 2 120.24 2 125 C20.15 125 38.3 125 57 125 C57 122.03 57 119.06 57 116 C57.33 116 57.66 116 58 116 C58 119.3 58 122.6 58 126 C39.52 126.33 21.04 126.66 2 127 C2 143.17 2 159.34 2 176 C1.34 176.33 0.68 176.66 0 177 C0 118.59 0 60.18 0 0 Z M2 77 C2 87.56 2 98.12 2 109 C20.48 109 38.96 109 58 109 C58 98.44 58 87.88 58 77 C39.52 77 21.04 77 2 77 Z " fill="#535353" transform="translate(241,797)"/>
<path d="M0 0 C9.549375 -0.020625 19.09875 -0.04125 28.9375 -0.0625 C33.46585571 -0.07615601 33.46585571 -0.07615601 38.08569336 -0.09008789 C40.46207637 -0.0930068 42.83845988 -0.09555541 45.21484375 -0.09765625 C46.462052 -0.10277222 47.70926025 -0.10788818 48.9942627 -0.11315918 C50.17170044 -0.11328003 51.34913818 -0.11340088 52.56225586 -0.11352539 C54.1044706 -0.11685631 54.1044706 -0.11685631 55.67784119 -0.12025452 C58 0 58 0 59 1 C59.09695318 3.16426174 59.12186765 5.33175253 59.12025452 7.4981842 C59.12110894 8.18507543 59.12196337 8.87196665 59.12284368 9.57967275 C59.12450045 11.89827455 59.11897393 14.21680517 59.11352539 16.53540039 C59.11324354 18.19069924 59.11340122 19.84599822 59.1139679 21.501297 C59.11425594 26.00936933 59.10835819 30.51741529 59.10139394 35.02548146 C59.09516145 39.73137737 59.09455668 44.43727382 59.09336853 49.14317322 C59.0902549 58.06088634 59.08204109 66.97858727 59.07201904 75.89629501 C59.06085888 86.04606297 59.0553477 96.1958315 59.05032361 106.34560406 C59.0398585 127.23041104 59.02151264 148.11520128 59 169 C39.53 169 20.06 169 0 169 C0 151.51 0 134.02 0 116 C-1.65 116 -3.3 116 -5 116 C-5 115.67 -5 115.34 -5 115 C15.46 115 35.92 115 57 115 C57 96.85 57 78.7 57 60 C36.54 60 16.08 60 -5 60 C-5 59.67 -5 59.34 -5 59 C-3.35 59 -1.7 59 0 59 C0 39.53 0 20.06 0 0 Z M2 2 C2 20.48 2 38.96 2 58 C20.15 58 38.3 58 57 58 C57 39.52 57 21.04 57 2 C38.85 2 20.7 2 2 2 Z M1 116 C1 133.16 1 150.32 1 168 C19.48 168 37.96 168 57 168 C57 150.84 57 133.68 57 116 C38.52 116 20.04 116 1 116 Z " fill="#464646" transform="translate(792,738)"/>
<path d="M0 0 C0.66 0 1.32 0 2 0 C2 18.15 2 36.3 2 55 C25.43 55 48.86 55 73 55 C73.33 36.85 73.66 18.7 74 0 C74.33 0 74.66 0 75 0 C75 18.15 75 36.3 75 55 C98.43 55 121.86 55 146 55 C146 36.85 146 18.7 146 0 C146.33 0 146.66 0 147 0 C147 18.15 147 36.3 147 55 C162.18 55 177.36 55 193 55 C193 55.66 193 56.32 193 57 C178.15 57 163.3 57 148 57 C148 58.98 148 60.96 148 63 C147.34 63 146.68 63 146 63 C146 61.02 146 59.04 146 57 C73.73 57 1.46 57 -73 57 C-72.67 56.34 -72.34 55.68 -72 55 C-48.24 55 -24.48 55 0 55 C0 36.85 0 18.7 0 0 Z " fill="#5D5D5D" transform="translate(744,668)"/>
<path d="M0 0 C19.47 0 38.94 0 59 0 C59 19.47 59 38.94 59 59 C60.32 59.33 61.64 59.66 63 60 C42.54 60 22.08 60 1 60 C1 78.15 1 96.3 1 115 C21.79 115 42.58 115 64 115 C64 115.33 64 115.66 64 116 C62.35 116 60.7 116 59 116 C59 133.49 59 150.98 59 169 C39.53 169 20.06 169 0 169 C0 113.23 0 57.46 0 0 Z M2 2 C2 20.81 2 39.62 2 59 C20.15 59 38.3 59 57 59 C57 40.19 57 21.38 57 2 C38.85 2 20.7 2 2 2 Z M1 116 C1 133.16 1 150.32 1 168 C19.81 168 38.62 168 58 168 C58 150.84 58 133.68 58 116 C39.19 116 20.38 116 1 116 Z " fill="#393939" transform="translate(328,738)"/>
<path d="M0 0 C0.33 0 0.66 0 1 0 C1 3.63 1 7.26 1 11 C69.31 11 137.62 11 208 11 C208 11.33 208 11.66 208 12 C174.01 12 140.02 12 105 12 C105 28.5 105 45 105 62 C51.54 62 -1.92 62 -57 62 C-57 61.67 -57 61.34 -57 61 C-38.19 61 -19.38 61 0 61 C0 44.83 0 28.66 0 12 C-18.81 12 -37.62 12 -57 12 C-57 11.67 -57 11.34 -57 11 C-38.19 11 -19.38 11 0 11 C0 7.37 0 3.74 0 0 Z M1 12 C1 28.17 1 44.34 1 61 C23.77 61 46.54 61 70 61 C70 44.83 70 28.66 70 12 C47.23 12 24.46 12 1 12 Z M72 12 C72 28.17 72 44.34 72 61 C82.56 61 93.12 61 104 61 C104 44.83 104 28.66 104 12 C93.44 12 82.88 12 72 12 Z " fill="#212121" transform="translate(299,912)"/>
<path d="M0 0 C0.33 0 0.66 0 1 0 C1 35.31 1 70.62 1 107 C-22.43 106.67 -45.86 106.34 -70 106 C-70 94.78 -70 83.56 -70 72 C-46.9 72 -23.8 72 0 72 C0 65.73 0 59.46 0 53 C-23.1 53 -46.2 53 -70 53 C-70 36 -70 36 -69 35 C-67.4651703 34.90680551 -65.92607918 34.882542 -64.38842773 34.88647461 C-63.40748642 34.88655014 -62.4265451 34.88662567 -61.4158783 34.88670349 C-60.3492244 34.89186478 -59.2825705 34.89702606 -58.18359375 34.90234375 C-57.0974025 34.9037587 -56.01121124 34.90517365 -54.8921051 34.90663147 C-51.40720925 34.91224952 -47.92237658 34.92480508 -44.4375 34.9375 C-42.08138113 34.94251267 -39.72526126 34.94707598 -37.36914062 34.95117188 C-31.57940257 34.96222482 -25.78971201 34.97950154 -20 35 C-20 28.07 -20 21.14 -20 14 C-36.17 14 -52.34 14 -69 14 C-69 13.67 -69 13.34 -69 13 C-52.5 13 -36 13 -19 13 C-19 20.92 -19 28.84 -19 37 C-35.17 37 -51.34 37 -68 37 C-68 41.95 -68 46.9 -68 52 C-45.89 51.67 -23.78 51.34 -1 51 C-0.67 34.17 -0.34 17.34 0 0 Z M-68 73 C-68 83.56 -68 94.12 -68 105 C-45.56 105 -23.12 105 0 105 C0 94.44 0 83.88 0 73 C-22.44 73 -44.88 73 -68 73 Z " fill="#202020" transform="translate(937,801)"/>
<path d="M0 0 C22.77 0 45.54 0 69 0 C69 0.33 69 0.66 69 1 C46.89 1.33 24.78 1.66 2 2 C2 11.9 2 21.8 2 32 C24.44 32 46.88 32 70 32 C70 27.38 70 22.76 70 18 C70.33 18 70.66 18 71 18 C71.15295073 50.01376431 70.74050425 81.99485486 70 114 C69.67 114 69.34 114 69 114 C69 96.51 69 79.02 69 61 C46.23 61 23.46 61 0 61 C0 60.34 0 59.68 0 59 C22.77 59 45.54 59 69 59 C69 50.75 69 42.5 69 34 C46.23 34 23.46 34 0 34 C0 22.78 0 11.56 0 0 Z " fill="#585858" transform="translate(867,738)"/>
<path d="M0 0 C16.83 0 33.66 0 51 0 C51 10.89 51 21.78 51 33 C61.56 33 72.12 33 83 33 C83.33 33.66 83.66 34.32 84 35 C69.15 35 54.3 35 39 35 C39 27.41 39 19.82 39 12 C30.09 12 21.18 12 12 12 C12 19.59 12 27.18 12 35 C11.34 35 10.68 35 10 35 C10 26.75 10 18.5 10 10 C19.9 10 29.8 10 40 10 C40 17.59 40 25.18 40 33 C42.97 33 45.94 33 49 33 C49 22.77 49 12.54 49 2 C33.16 2 17.32 2 1 2 C1 12.89 1 23.78 1 35 C-10.22 35 -21.44 35 -33 35 C-32.67 34.34 -32.34 33.68 -32 33 C-21.44 33 -10.88 33 0 33 C0 22.11 0 11.22 0 0 Z " fill="#4B4B4B" transform="translate(564,832)"/>
<path d="M0 0 C0 18.15 0 36.3 0 55 C-34.65 55 -69.3 55 -105 55 C-105 37.51 -105 20.02 -105 2 C-106.65 2 -108.3 2 -110 2 C-110 1.67 -110 1.34 -110 1 C-95.95309107 0.8695038 -81.90618116 0.7391143 -67.8592701 0.60884857 C-61.33733195 0.54836345 -54.81539413 0.48784375 -48.29345703 0.42724609 C-42.00410918 0.36881076 -35.7147605 0.31046486 -29.42541122 0.25218201 C-27.02114711 0.22988598 -24.61688329 0.20755726 -22.21261978 0.18519592 C-18.85545173 0.15397739 -15.49828265 0.12287316 -12.14111328 0.09179688 C-11.13842407 0.08244614 -10.13573486 0.0730954 -9.10266113 0.0634613 C-7.73544418 0.05084007 -7.73544418 0.05084007 -6.34060669 0.03796387 C-5.54602114 0.03058952 -4.75143559 0.02321518 -3.93277168 0.01561737 C-2.62188025 0.00502498 -1.31093423 0 0 0 Z M-103 2 C-103 19.16 -103 36.32 -103 54 C-69.67 54 -36.34 54 -2 54 C-2 36.84 -2 19.68 -2 2 C-35.33 2 -68.66 2 -103 2 Z " fill="#323232" transform="translate(508,852)"/>
<path d="M0 0 C19.47 0 38.94 0 59 0 C59 5.28 59 10.56 59 16 C47.45 16 35.9 16 24 16 C24 24.58 24 33.16 24 42 C34.89 42 45.78 42 57 42 C57 42.33 57 42.66 57 43 C45.45 43 33.9 43 22 43 C22 33.43 22 23.86 22 14 C33.55 14 45.1 14 57 14 C57 9.71 57 5.42 57 1 C38.85 1 20.7 1 2 1 C2 19.15 2 37.3 2 56 C20.81 56 39.62 56 59 56 C59 56.33 59 56.66 59 57 C39.53 57 20.06 57 0 57 C0 38.19 0 19.38 0 0 Z " fill="#272727" transform="translate(241,797)"/>
<path d="M0 0 C18.81 0 37.62 0 57 0 C57 14.19 57 28.38 57 43 C38.19 43 19.38 43 0 43 C0 47.95 0 52.9 0 58 C18.81 58 37.62 58 57 58 C57 58.33 57 58.66 57 59 C37.53 59 18.06 59 -2 59 C-2 37.1638323 -2 37.1638323 -1.78125 29.83203125 C-1.75905396 29.01546555 -1.73685791 28.19889984 -1.71398926 27.35758972 C-1.64508519 24.84248511 -1.57264415 22.32749903 -1.5 19.8125 C-1.45158343 18.06836601 -1.40340549 16.32422537 -1.35546875 14.58007812 C-1.23971117 10.3866376 -1.12079064 6.19329844 -1 2 C-0.67 2 -0.34 2 0 2 C0 14.87 0 27.74 0 41 C18.15 41 36.3 41 55 41 C55 28.13 55 15.26 55 2 C49.06 2 43.12 2 37 2 C33.71338086 1.94453959 30.43310136 1.88153662 27.1484375 1.78125 C26.35265289 1.75905396 25.55686829 1.73685791 24.73696899 1.71398926 C22.28290511 1.64501691 19.82895877 1.57260521 17.375 1.5 C15.67448577 1.45159025 13.97396493 1.40341227 12.2734375 1.35546875 C8.18221097 1.23963371 4.09108511 1.12072265 0 1 C0 0.67 0 0.34 0 0 Z " fill="#616161" transform="translate(243,738)"/>
<path d="M0 0 C0.66 0 1.32 0 2 0 C2 18.48 2 36.96 2 56 C14.54 56 27.08 56 40 56 C40 56.33 40 56.66 40 57 C2.71 57 -34.58 57 -73 57 C-72.67 56.34 -72.34 55.68 -72 55 C-48.24 55 -24.48 55 0 55 C0 36.85 0 18.7 0 0 Z " fill="#4D4D4D" transform="translate(744,668)"/>
<path d="M0 0 C0.33 0 0.66 0 1 0 C1.02327813 11.36236446 1.04099338 22.72472316 1.05181217 34.0871067 C1.05700738 39.36439487 1.06404322 44.6416666 1.07543945 49.91894531 C1.08638875 55.02180516 1.09230209 60.12464929 1.09487724 65.22751999 C1.09670996 67.16412986 1.10028828 69.10073898 1.10573006 71.03734207 C1.13459269 81.74497785 0.9861479 92.32869306 0 103 C-0.33 103 -0.66 103 -1 103 C-1 93.1 -1 83.2 -1 73 C-23.44 73 -45.88 73 -69 73 C-69 72.67 -69 72.34 -69 72 C-46.56 72 -24.12 72 -1 72 C-1.01160156 66.97007812 -1.02320313 61.94015625 -1.03515625 56.7578125 C-1.04026401 53.57682163 -1.04507786 50.3958358 -1.04882812 47.21484375 C-1.05481269 42.16258701 -1.06190274 37.11034835 -1.07543945 32.05810547 C-1.0862815 27.98623328 -1.09227964 23.91438047 -1.09487724 19.84249496 C-1.09672911 18.28671844 -1.10034518 16.73094302 -1.10573006 15.17517471 C-1.11295795 13.00103693 -1.1139902 10.82697984 -1.11352539 8.65283203 C-1.115746 7.41373077 -1.11796661 6.17462952 -1.12025452 4.89797974 C-1 2 -1 2 0 0 Z " fill="#414141" transform="translate(937,667)"/>
<path d="M0 0 C16.83 0 33.66 0 51 0 C50.67 10.89 50.34 21.78 50 33 C49.67 33 49.34 33 49 33 C49 22.77 49 12.54 49 2 C33.16 2 17.32 2 1 2 C1 12.89 1 23.78 1 35 C-10.22 35 -21.44 35 -33 35 C-32.67 34.34 -32.34 33.68 -32 33 C-21.44 33 -10.88 33 0 33 C0 22.11 0 11.22 0 0 Z " fill="#4D4D4D" transform="translate(564,832)"/>
<path d="M0 0 C16.5 0 33 0 50 0 C50 7.92 50 15.84 50 24 C33.83 24 17.66 24 1 24 C1 28.62 1 33.24 1 38 C0.34 38.66 -0.32 39.32 -1 40 C-1.02684312 37.18743719 -1.04676188 34.37512759 -1.0625 31.5625 C-1.07087891 30.76005859 -1.07925781 29.95761719 -1.08789062 29.13085938 C-1.0965143 27.08704779 -1.0522815 25.04316098 -1 23 C0 22 0 22 1.98048401 21.87974548 C2.84874313 21.88196609 3.71700226 21.88418671 4.61157227 21.88647461 C5.59251358 21.88655014 6.5734549 21.88662567 7.5841217 21.88670349 C8.6507756 21.89186478 9.7174295 21.89702606 10.81640625 21.90234375 C11.9025975 21.9037587 12.98878876 21.90517365 14.1078949 21.90663147 C17.59279075 21.91224952 21.07762342 21.92480508 24.5625 21.9375 C26.91861887 21.94251267 29.27473874 21.94707598 31.63085938 21.95117188 C37.42059743 21.96222482 43.21028799 21.97950154 49 22 C49 15.07 49 8.14 49 1 C32.83 1 16.66 1 0 1 C0 0.67 0 0.34 0 0 Z " fill="#222222" transform="translate(868,814)"/>
<path d="M0 0 C23.43 0 46.86 0 71 0 C70.67 18.15 70.34 36.3 70 55 C69.67 55 69.34 55 69 55 C69 37.51 69 20.02 69 2 C46.23 2 23.46 2 0 2 C0 1.34 0 0.68 0 0 Z " fill="#5E5E5E" transform="translate(867,797)"/>
<path d="M0 0 C0.33 0 0.66 0 1 0 C1 5.28 1 10.56 1 16 C-10.55 16 -22.1 16 -34 16 C-34 24.58 -34 33.16 -34 42 C-23.11 42 -12.22 42 -1 42 C-1 42.33 -1 42.66 -1 43 C-12.55 43 -24.1 43 -36 43 C-36 33.43 -36 23.86 -36 14 C-24.45 14 -12.9 14 -1 14 C-1 9.71 -1 5.42 -1 1 C-0.67 0.67 -0.34 0.34 0 0 Z " fill="#414141" transform="translate(299,797)"/>
<path d="M0 0 C0.66 0 1.32 0 2 0 C2 2.31 2 4.62 2 7 C16.85 7 31.7 7 47 7 C47 7.33 47 7.66 47 8 C32.15 8.33 17.3 8.66 2 9 C2 25.17 2 41.34 2 58 C1.34 58 0.68 58 0 58 C0 41.83 0 25.66 0 9 C-3.96 9 -7.92 9 -12 9 C-12 8.67 -12 8.34 -12 8 C-8.04 8 -4.08 8 0 8 C0 5.36 0 2.72 0 0 Z " fill="#595959" transform="translate(890,915)"/>
<path d="M0 0 C18.81 0 37.62 0 57 0 C57 14.19 57 28.38 57 43 C55 41 55 41 54.77294922 37.19287109 C54.77326654 35.5530258 54.78460319 33.91315983 54.8046875 32.2734375 C54.8075174 31.41062164 54.81034729 30.54780579 54.81326294 29.65884399 C54.82447667 26.8974228 54.84958316 24.1363235 54.875 21.375 C54.88502827 19.50521301 54.89415438 17.63542095 54.90234375 15.765625 C54.92441988 11.17695891 54.95895766 6.58853407 55 2 C53.3924585 2.00870117 53.3924585 2.00870117 51.75244141 2.01757812 C40.28439639 2.05981351 28.83745795 1.83913944 17.375 1.5 C15.67448577 1.45159025 13.97396493 1.40341227 12.2734375 1.35546875 C8.18221097 1.23963371 4.09108511 1.12072265 0 1 C0 0.67 0 0.34 0 0 Z " fill="#565656" transform="translate(243,738)"/>
<path d="M0 0 C0.33 0 0.66 0 1 0 C1 9.9 1 19.8 1 30 C11.56 30 22.12 30 33 30 C33.495 30.99 33.495 30.99 34 32 C19.15 32 4.3 32 -11 32 C-10.67 31.34 -10.34 30.68 -10 30 C-6.7 30 -3.4 30 0 30 C0 20.1 0 10.2 0 0 Z " fill="#424242" transform="translate(614,835)"/>
<path d="M0 0 C0.86825912 0.00222061 1.73651825 0.00444122 2.63108826 0.00672913 C3.61202957 0.00680466 4.59297089 0.00688019 5.6036377 0.00695801 C6.6702916 0.01211929 7.7369455 0.01728058 8.83592224 0.02259827 C9.92211349 0.02401321 11.00830475 0.02542816 12.12741089 0.02688599 C15.61230674 0.03250403 19.09713941 0.04505959 22.58201599 0.05775452 C24.93813486 0.06276719 27.29425473 0.0673305 29.65037537 0.07142639 C35.44011063 0.08247933 41.2298088 0.09923501 47.01951599 0.12025452 C47.01951599 0.45025452 47.01951599 0.78025452 47.01951599 1.12025452 C14.91800654 2.31413855 14.91800654 2.31413855 -0.98048401 2.12025452 C-0.95728088 3.10767639 -0.93407776 4.09509827 -0.91017151 5.11244202 C-0.89212463 6.39377014 -0.87407776 7.67509827 -0.85548401 8.99525452 C-0.83228088 10.27142639 -0.80907776 11.54759827 -0.78517151 12.86244202 C-0.98048401 16.12025452 -0.98048401 16.12025452 -2.98048401 18.12025452 C-3.00732713 15.3076917 -3.02724588 12.49538211 -3.04298401 9.68275452 C-3.05136292 8.88031311 -3.05974182 8.0778717 -3.06837463 7.25111389 C-3.07699831 5.20730231 -3.03276551 3.1634155 -2.98048401 1.12025452 C-1.98048401 0.12025452 -1.98048401 0.12025452 0 0 Z " fill="#666666" transform="translate(869.9804840087891,835.8797454833984)"/>
<path d="M0 0 C0 2.64 0 5.28 0 8 C-0.66 8 -1.32 8 -2 8 C-2 6.02 -2 4.04 -2 2 C-7.94 2 -13.88 2 -20 2 C-20 1.67 -20 1.34 -20 1 C-17.04170322 0.832662 -14.08336635 0.66609948 -11.125 0.5 C-9.86236328 0.42845703 -9.86236328 0.42845703 -8.57421875 0.35546875 C-7.76855469 0.31035156 -6.96289062 0.26523437 -6.1328125 0.21875 C-5.38918457 0.17685547 -4.64555664 0.13496094 -3.87939453 0.09179688 C-2.58744125 0.0286929 -1.29349349 0 0 0 Z " fill="#434343" transform="translate(892,723)"/>
</svg>
