<?xml version="1.0" standalone="no"?>
<!DOCTYPE svg PUBLIC "-//W3C//DTD SVG 20010904//EN"
 "http://www.w3.org/TR/2001/REC-SVG-20010904/DTD/svg10.dtd">
<svg version="1.0" xmlns="http://www.w3.org/2000/svg"
 width="2112.000000pt" height="952.000000pt" viewBox="0 0 2112.000000 952.000000"
 preserveAspectRatio="xMidYMid meet">

<g transform="translate(0.000000,952.000000) scale(0.100000,-0.100000)"
fill="#000000" stroke="none">
<path d="M126 9344 c-3 -8 -6 -2078 -6 -4599 l0 -4584 22 -12 c17 -9 1401 -10
5978 -4 3275 4 6029 7 6120 6 615 -5 8719 -11 8737 -6 l23 5 -2 1518 c-1 834
-5 1875 -9 2312 -3 437 -10 1823 -13 3080 -4 1257 -11 2288 -15 2293 -4 4
-1960 6 -4347 5 l-4339 -3 -5 -2962 c-3 -2067 -8 -2965 -16 -2973 -7 -7 -157
-9 -475 -8 l-464 3 -5 490 c-3 270 -6 491 -8 493 -1 1 -339 2 -751 2 -490 0
-752 -3 -756 -10 -3 -6 -6 -219 -5 -475 0 -309 -3 -472 -10 -485 -10 -19 -23
-20 -475 -20 -263 0 -466 4 -469 9 -3 5 -6 1334 -6 2952 0 1619 -3 2954 -6
2966 l-6 22 -4343 1 c-3972 0 -4343 -1 -4349 -16z m1849 -854 l0 -825 -899 -3
c-713 -2 -901 0 -908 10 -9 15 -11 1608 -2 1632 6 15 92 16 908 14 l901 -3 0
-825z m6080 0 l0 -825 -3009 -3 c-2401 -2 -3011 0 -3018 10 -9 16 -11 1632 -1
1641 3 4 1361 6 3017 5 l3011 -3 0 -825z m735 -2142 c3 -1631 8 -2969 11
-2972 8 -8 1000 -9 1008 -1 3 4 7 223 8 487 1 384 5 483 15 489 20 13 1395 11
1419 -1 18 -10 19 -26 19 -463 0 -249 -4 -458 -8 -465 -7 -9 -42 -12 -143 -10
l-134 3 -3 330 c-1 181 -6 333 -10 337 -5 5 -197 9 -427 9 -381 1 -420 0 -431
-16 -9 -12 -12 -100 -12 -340 0 -178 2 -333 5 -344 3 -12 11 -21 19 -21 11 0
14 60 16 338 l3 337 395 0 395 0 5 -327 c3 -224 9 -331 16 -338 9 -9 193 -11
670 -10 362 0 660 3 664 6 3 3 7 1341 10 2972 l5 2967 330 3 c301 2 331 1 343
-15 9 -13 12 -198 12 -844 0 -669 2 -829 13 -837 9 -8 942 -11 3276 -11 1794
0 3266 -3 3272 -6 5 -4 9 -41 9 -84 0 -54 4 -82 13 -90 22 -18 27 -2 27 85 0
46 5 86 10 89 12 8 1299 7 1311 -1 5 -3 9 -92 9 -199 0 -168 -2 -194 -16 -199
-9 -3 -469 -6 -1022 -6 -553 0 -1009 -3 -1014 -8 -4 -4 -7 -226 -6 -493 l3
-484 1019 -3 c733 -1 1023 -5 1033 -13 10 -9 13 -82 13 -375 0 -342 -1 -364
-18 -373 -12 -6 -390 -10 -1027 -11 -555 0 -1011 -2 -1014 -5 -23 -23 76 -26
1021 -25 907 0 1008 -1 1022 -16 14 -14 16 -97 16 -803 0 -599 -3 -790 -12
-799 -16 -16 -1969 -18 -1999 -2 -18 10 -19 23 -19 208 0 108 5 204 10 212 8
13 102 15 732 18 397 1 726 6 731 11 8 8 11 691 3 699 -6 5 -1498 3 -1504 -2
-23 -23 51 -26 732 -26 601 0 725 -2 735 -14 8 -9 11 -101 9 -317 l-3 -304
-725 -5 c-399 -3 -733 -9 -743 -14 -16 -8 -17 -27 -15 -255 l3 -246 1026 -3
c836 -2 1029 -5 1038 -15 7 -9 12 -104 15 -266 4 -240 3 -254 -15 -272 -19
-19 -44 -19 -1028 -19 -554 0 -1015 -2 -1024 -6 -16 -6 -17 -50 -17 -505 0
-482 1 -499 19 -509 13 -7 351 -10 1026 -10 675 0 1013 -3 1026 -10 18 -10 19
-23 19 -218 0 -149 -3 -211 -12 -220 -17 -17 -1319 -17 -1336 0 -8 8 -12 47
-12 108 0 101 -3 112 -26 103 -11 -4 -14 -28 -14 -102 0 -62 -4 -101 -12 -109
-9 -9 -751 -12 -3279 -12 -2970 0 -3267 -1 -3273 -16 -3 -9 -6 -343 -6 -744 0
-643 -2 -729 -15 -740 -13 -10 -78 -12 -308 -7 -266 5 -293 7 -305 24 -10 15
-13 156 -11 742 0 411 -3 727 -8 732 -10 10 -3582 13 -3592 3 -3 -3 -8 -342
-11 -752 l-5 -747 -315 0 -315 0 -5 750 -5 750 -3097 5 c-2084 3 -3100 8
-3107 15 -6 6 -12 71 -13 145 -4 180 -22 180 -26 0 -2 -112 -5 -137 -19 -147
-13 -10 -196 -13 -835 -13 -798 0 -818 0 -828 19 -11 21 -14 379 -4 419 l6 22
849 0 849 0 5 23 c3 12 4 245 3 517 l-3 495 -845 2 c-780 3 -846 4 -857 20
-19 25 -18 516 0 532 10 8 255 12 858 13 554 2 844 6 844 13 0 7 -290 11 -845
13 -464 1 -848 6 -852 10 -5 5 -8 372 -8 817 0 632 3 811 13 817 6 4 374 8
817 8 614 0 809 -3 818 -12 8 -8 12 -67 12 -199 0 -161 -2 -188 -16 -193 -9
-3 -242 -6 -520 -6 l-504 0 -5 -22 c-3 -13 -4 -203 -3 -423 l3 -400 515 -3
c283 -1 522 0 530 3 49 19 -58 25 -503 25 l-487 0 -11 27 c-6 16 -9 160 -7
387 l3 361 520 5 c286 3 521 6 523 8 1 1 1 107 0 235 l-3 232 -840 2 c-776 3
-841 4 -853 20 -17 23 -17 434 0 451 9 9 213 12 855 12 l843 0 -2 633 -3 632
-843 0 c-738 0 -844 2 -852 15 -12 18 -13 360 -2 378 7 10 188 13 902 13 491
0 897 -4 901 -8 5 -5 10 -55 11 -113 3 -90 5 -105 20 -108 16 -3 18 7 18 100
0 57 4 109 8 116 7 10 582 13 3016 12 1654 0 3018 3 3032 6 l24 6 0 842 c0
464 3 846 7 849 4 4 158 6 342 5 l336 -3 5 -2967z m6390 2142 l0 -830 -1077 2
-1078 3 -3 815 c-1 448 0 821 3 828 3 9 229 12 1080 12 l1075 0 0 -830z m2185
808 c3 -13 4 -385 3 -828 l-3 -805 -1070 0 -1070 0 -3 805 c-1 443 0 815 3
828 l5 22 1065 0 1065 0 5 -22z m2190 -808 l0 -825 -1069 -3 c-849 -2 -1071 0
-1078 10 -4 7 -8 375 -8 819 0 615 3 808 12 817 9 9 257 12 1078 10 l1065 -3
0 -825z m1370 0 l0 -825 -660 0 -660 0 -3 815 c-1 448 0 821 3 828 3 10 141
12 662 10 l658 -3 0 -825z m-19097 -1911 c2 -486 0 -588 -12 -598 -10 -8 -231
-10 -827 -9 l-814 3 -5 583 c-3 321 -1 590 3 598 7 12 125 14 830 12 l822 -3
3 -586z m19090 583 c10 -7 12 -105 10 -458 l-3 -449 -1005 0 -1005 0 -3 449
c-2 353 0 451 10 458 7 4 456 8 998 8 542 0 991 -4 998 -8z m-19070 -4483 c2
-386 0 -468 -12 -478 -10 -8 -234 -11 -836 -11 -453 0 -825 1 -826 3 -3 2 -6
858 -4 945 0 10 171 12 838 10 l837 -3 3 -466z m19095 449 c19 -30 25 -884 7
-917 l-11 -21 -1002 0 c-767 0 -1006 3 -1015 12 -9 9 -12 126 -12 464 0 249 3
459 6 468 6 14 104 16 1010 16 l1004 0 13 -22z m-19113 -1478 c19 -10 20 -32
20 -727 0 -519 -3 -719 -11 -729 -10 -12 -152 -14 -839 -14 l-828 0 -6 23 c-3
12 -6 338 -6 724 0 625 2 703 16 717 14 14 102 16 825 16 533 0 817 -4 829
-10z m2119 -4 c8 -9 10 -211 9 -737 l-3 -724 -1035 0 -1035 0 -3 732 c-2 691
-1 732 15 736 10 3 473 5 1029 6 842 1 1013 -1 1023 -13z m1005 3 c10 -10 8
-1451 -2 -1461 -4 -4 -219 -7 -478 -6 l-469 3 -3 725 c-2 679 -1 726 15 738
14 10 116 12 474 10 252 -2 460 -6 463 -9z m1024 3 c10 -7 12 -161 10 -738
l-3 -729 -485 -3 c-447 -2 -486 -1 -497 15 -10 13 -13 173 -13 722 0 388 4
711 8 717 4 6 14 14 22 17 23 9 943 8 958 -1z m2071 -6 c8 -9 10 -211 9 -737
l-3 -724 -1004 -3 c-797 -2 -1006 0 -1013 10 -4 7 -8 335 -8 729 0 543 3 718
12 727 19 19 1991 17 2007 -2z m1895 -2 c14 -14 16 -94 16 -729 0 -696 0 -715
-19 -725 -13 -6 -214 -10 -585 -10 -549 0 -566 1 -576 19 -7 13 -10 260 -10
731 l0 711 23 9 c12 5 272 9 579 9 493 1 558 -1 572 -15z m2350 10 c14 -6 16
-79 16 -729 0 -398 -4 -726 -8 -729 -4 -2 -519 -8 -1144 -12 -916 -6 -1140 -5
-1153 6 -13 11 -15 97 -15 729 0 544 3 720 12 729 9 9 277 12 1144 12 623 0
1139 -3 1148 -6z m2884 -737 l2 -737 -1077 2 -1078 3 -3 732 c-2 691 -1 732
15 736 10 3 495 4 1078 3 l1060 -1 3 -738z m2180 731 c9 -9 12 -184 12 -724 0
-392 -3 -719 -6 -728 -6 -14 -109 -16 -1063 -16 -809 0 -1060 3 -1069 12 -9 9
-12 185 -12 730 0 672 1 718 18 727 27 16 2104 15 2120 -1z m2191 -2 c8 -9 10
-211 9 -737 l-3 -724 -1064 -3 c-778 -1 -1067 1 -1077 9 -12 9 -14 136 -14
725 0 634 2 714 16 728 14 14 124 16 1068 16 876 0 1055 -2 1065 -14z m1385 4
l26 -10 0 -719 c0 -594 -2 -721 -14 -730 -9 -8 -195 -10 -677 -9 l-664 3 -3
729 c-2 576 1 731 10 737 19 12 1291 11 1322 -1z"/>
<path d="M14535 7200 l-1540 -5 -3 -2509 c-1 -1846 1 -2512 9 -2522 18 -22
3081 -21 3099 1 9 11 11 194 10 783 -1 696 1 771 15 786 12 12 35 16 86 16 62
0 85 9 60 25 -5 3 -733 5 -1617 5 -1178 0 -1610 3 -1620 11 -12 10 -14 150
-14 815 0 786 0 804 19 814 14 7 531 10 1622 10 881 0 1604 2 1607 4 14 14
-17 26 -68 26 -99 0 -91 -86 -90 877 1 828 -1 881 -29 871 -3 -2 -699 -5
-1546 -8z m1526 -40 c19 -10 19 -30 19 -843 0 -635 -3 -836 -12 -845 -16 -16
-2999 -18 -3029 -2 -19 10 -19 30 -19 850 0 790 1 839 18 843 38 10 3004 7
3023 -3z m9 -3429 c7 -13 10 -272 10 -769 0 -630 -2 -751 -14 -761 -10 -9
-392 -12 -1521 -11 -829 0 -1511 3 -1516 6 -10 6 -12 1537 -2 1547 3 4 687 7
1519 7 1486 0 1513 0 1524 -19z"/>
<path d="M16627 7198 c-9 -5 -11 -222 -9 -855 2 -561 0 -853 -7 -863 -7 -10
-33 -17 -73 -20 -43 -3 -63 -9 -63 -18 0 -11 169 -13 912 -12 822 0 913 -1
927 -15 14 -15 16 -96 16 -803 0 -433 -3 -797 -6 -810 l-6 -22 -930 0 c-511 0
-933 -2 -939 -5 -23 -15 8 -25 77 -25 68 0 75 -2 82 -22 5 -13 9 -369 11 -793
2 -423 5 -772 8 -775 2 -3 385 -6 850 -8 747 -2 849 -1 869 13 l24 15 0 2499
c0 2096 -2 2500 -14 2510 -15 13 -1709 21 -1729 9z m1691 -40 c16 -16 17
-1649 2 -1679 -10 -19 -30 -19 -825 -19 -721 0 -815 2 -829 15 -14 14 -16 110
-16 840 0 734 2 825 16 839 14 14 104 16 828 16 618 0 815 -3 824 -12z m6
-3424 c9 -24 7 -1517 -2 -1531 -6 -10 -184 -13 -827 -13 -767 -1 -820 0 -832
16 -17 23 -19 1494 -3 1525 10 19 30 19 834 19 742 0 824 -2 830 -16z"/>
<path d="M2730 7183 c-4 -355 2 -5017 5 -5024 4 -5 352 -9 864 -9 707 0 861 2
870 13 8 10 12 239 13 798 l3 784 65 3 c77 3 97 9 83 23 -6 6 -325 10 -925 9
-824 0 -918 1 -932 16 -14 14 -16 98 -16 809 0 710 2 795 16 809 14 15 109 16
926 16 501 0 914 2 917 6 13 12 -36 27 -81 25 -27 -1 -49 -1 -50 1 -2 2 -5
392 -8 868 l-5 865 -872 3 c-827 2 -873 1 -873 -15z m1691 -23 c19 -10 19 -30
19 -845 0 -815 0 -835 -19 -845 -13 -7 -289 -10 -825 -10 -718 0 -806 2 -820
16 -14 14 -16 104 -16 844 0 779 1 830 18 839 24 14 1616 15 1643 1z m7 -3422
c14 -14 18 -1533 3 -1542 -4 -3 -376 -6 -827 -6 -771 -1 -819 0 -831 16 -17
23 -19 1494 -3 1525 10 19 30 19 828 19 623 0 821 -3 830 -12z"/>
<path d="M4978 7198 c-2 -2 -5 -392 -8 -868 l-5 -865 -69 -5 c-43 -3 -71 -10
-74 -17 -3 -10 323 -13 1605 -13 1238 0 1612 -3 1621 -12 19 -19 17 -1611 -2
-1627 -10 -8 -439 -11 -1616 -11 -1039 0 -1607 -3 -1614 -10 -13 -13 7 -19 84
-22 l65 -3 3 -784 c1 -559 5 -788 13 -798 10 -11 272 -13 1543 -13 842 0 1541
3 1554 6 l22 6 -2 2517 -3 2516 -1557 3 c-857 1 -1559 1 -1560 0z m3070 -40
c17 -17 17 -1669 0 -1686 -9 -9 -359 -12 -1515 -12 -1475 0 -1502 0 -1513 19
-15 30 -14 1663 2 1679 17 17 3009 17 3026 0z m7 -4188 l0 -775 -1514 -3
c-1205 -2 -1516 0 -1523 10 -4 7 -8 353 -8 769 0 575 3 758 12 767 9 9 356 11
1523 10 l1510 -3 0 -775z"/>
</g>
</svg>
