<svg version="1.1" id="Layer_1" xmlns="http://www.w3.org/2000/svg" xmlns:xlink="http://www.w3.org/1999/xlink" x="0px" y="0px"
	 width="100%" viewBox="0 0 1131 1600" enable-background="new 0 0 1131 1600" xml:space="preserve">
<path fill="none" opacity="1.000000" stroke="#000000" stroke-linecap="round" stroke-linejoin="round" stroke-width="2.000000"
	d="
M243.500000,781.500000 
	C262.168152,781.500000 280.836304,781.500000 299.750000,781.500000 
	C299.750000,767.500000 299.750000,754.000000 299.750000,740.250000 
	C280.833344,740.250000 262.166656,740.250000 243.250000,740.250000 
	C243.250000,716.669006 243.250000,692.834473 243.250000,668.442749 
	C339.333405,668.883240 435.663971,667.115173 532.500000,668.555054 
	C532.500000,734.499146 532.500000,800.500854 532.500000,866.750000 
	C543.661438,866.750000 554.330750,866.750000 565.500000,866.750000 
	C565.500000,856.171814 565.500000,845.328186 565.500000,834.250000 
	C582.329956,834.250000 598.664978,834.250000 615.621765,834.250000 
	C615.128784,844.666687 616.133789,855.333313 615.000000,866.000000 
"/>
<path fill="none" opacity="1.000000" stroke="#000000" stroke-linecap="round" stroke-linejoin="round" stroke-width="3.000000"
	d="
M508.000000,669.500000 
	C508.000000,687.834839 508.000000,706.169678 508.000000,725.000000 
	C419.667297,725.000000 331.833649,725.000000 244.000000,725.000000 
"/>
<path fill="none" opacity="1.000000" stroke="#000000" stroke-linecap="round" stroke-linejoin="round" stroke-width="2.000000"
	d="
M243.000000,741.000000 
	C243.000000,818.666687 243.000000,896.333313 243.000000,974.250000 
	C474.833344,974.250000 706.666687,974.250000 939.027527,974.250000 
	C939.129395,872.163513 937.291077,770.335083 938.137634,667.702820 
	C841.168701,669.853455 744.829773,666.759094 648.250000,668.622131 
	C648.250000,734.833740 648.250000,800.667480 648.250000,866.750000 
	C633.670532,866.750000 619.335266,866.750000 604.500000,866.750000 
	C604.500000,859.507385 604.500000,851.992615 604.500000,844.250000 
	C595.006165,844.250000 586.003113,844.250000 576.500000,844.250000 
	C576.500000,851.826233 576.500000,859.663147 576.500000,867.500000 
"/>
<path fill="none" opacity="1.000000" stroke="#000000" stroke-linecap="round" stroke-linejoin="round" stroke-width="3.000000"
	d="
M405.000000,797.500000 
	C405.000000,780.500000 405.000000,763.500000 405.000000,746.500000 
	C405.000000,740.423157 405.008179,740.663269 410.998596,740.459167 
	C439.496460,739.488403 468.000458,740.251038 496.500061,740.008362 
	C500.172455,739.977112 503.861053,739.723633 507.750000,740.819885 
	C507.750000,795.999023 507.750000,851.499512 507.750000,907.250000 
	C473.833344,907.250000 439.666656,907.250000 405.000000,907.250000 
	C405.000000,889.836548 405.000000,872.668274 405.000000,855.500000 
"/>
<path fill="none" opacity="1.000000" stroke="#000000" stroke-linecap="round" stroke-linejoin="round" stroke-width="2.000000"
	d="
M776.000000,797.500000 
	C774.889404,792.028625 775.599304,786.498230 775.539978,780.999573 
	C775.410583,769.000977 775.527588,756.999878 775.468018,745.000183 
	C775.459778,743.339661 776.154297,741.567932 774.956360,740.250000 
	C740.999207,740.250000 706.998474,740.250000 672.750000,740.250000 
	C672.750000,795.999023 672.750000,851.499512 672.750000,907.250000 
	C706.665039,907.250000 740.832520,907.250000 775.500000,907.250000 
	C775.500000,896.171570 775.397522,884.834473 775.541626,873.500549 
	C775.617859,867.501587 774.853577,861.472778 776.000000,855.500000 
"/>
<path fill="none" opacity="1.000000" stroke="#000000" stroke-linecap="round" stroke-linejoin="round" stroke-width="2.000000"
	d="
M937.500000,854.000000 
	C935.922546,855.058716 934.156982,854.460205 932.499878,854.464905 
	C913.166748,854.519775 893.833313,854.500000 874.500000,854.500000 
	C872.816650,854.500000 871.133362,854.500000 869.250000,854.500000 
	C869.250000,849.011108 869.250000,844.005554 869.250000,838.500000 
	C885.329956,838.500000 901.670044,838.500000 918.250000,838.500000 
	C918.250000,830.674255 918.250000,823.337097 918.250000,815.500000 
	C902.170044,815.500000 885.835022,815.500000 869.500000,815.500000 
"/>
<path fill="none" opacity="1.000000" stroke="#000000" stroke-linecap="round" stroke-linejoin="round" stroke-width="2.000000"
	d="
M937.500000,874.000000 
	C935.922546,875.058716 934.156982,874.460205 932.499878,874.464905 
	C913.166748,874.519775 893.833313,874.500000 874.500000,874.500000 
	C872.816650,874.500000 871.133362,874.500000 869.250000,874.500000 
	C869.250000,885.661438 869.250000,896.330750 869.250000,907.500000 
	C870.665344,907.500000 872.332642,907.500000 874.000000,907.500000 
	C893.666687,907.500000 913.333313,907.493469 933.000000,907.511658 
	C934.674438,907.513184 936.396790,907.198730 938.000000,908.000000 
"/>
<path fill="none" opacity="1.000000" stroke="#000000" stroke-linecap="round" stroke-linejoin="round" stroke-width="2.000000"
	d="
M244.000000,798.500000 
	C262.501495,798.500000 281.002991,798.500000 299.750000,798.500000 
	C299.750000,803.500000 299.750000,808.000000 299.750000,813.000000 
	C288.171570,813.000000 276.828430,813.000000 265.250000,813.000000 
	C265.250000,822.327026 265.250000,831.163513 265.250000,840.500000 
	C276.495178,840.500000 287.997589,840.500000 299.500000,840.500000 
"/>
<path fill="none" opacity="1.000000" stroke="#000000" stroke-linecap="round" stroke-linejoin="round" stroke-width="2.000000"
	d="
M387.000000,797.500000 
	C387.000000,779.833313 386.907166,762.165771 387.077545,744.500732 
	C387.112000,740.924988 386.069397,739.833740 382.498138,739.932312 
	C366.670319,740.369324 350.825195,739.432190 334.997284,740.458313 
	C333.523132,740.553894 331.908447,740.990540 330.000000,739.795227 
	C330.000000,795.664185 330.000000,851.331360 330.000000,907.250000 
	C348.833344,907.250000 367.666656,907.250000 387.000000,907.250000 
	C387.000000,889.836548 387.000000,872.668274 387.000000,855.500000 
"/>
<path fill="none" opacity="1.000000" stroke="#000000" stroke-linecap="round" stroke-linejoin="round" stroke-width="3.000000"
	d="
M793.500000,797.500000 
	C793.500000,778.498535 793.500000,759.497070 793.500000,740.250000 
	C812.833313,740.250000 831.666687,740.250000 850.750000,740.250000 
	C850.750000,796.000000 850.750000,851.500000 850.750000,907.250000 
	C831.666687,907.250000 812.833313,907.250000 793.500000,907.250000 
	C793.500000,889.836548 793.500000,872.668274 793.500000,855.500000 
"/>
<path fill="none" opacity="1.000000" stroke="#000000" stroke-linecap="round" stroke-linejoin="round" stroke-width="2.000000"
	d="
M243.500000,907.500000 
	C262.333344,907.500000 281.166656,907.500000 300.250000,907.500000 
	C300.250000,896.500000 300.250000,885.500000 300.250000,874.000000 
	C288.504822,874.000000 277.002411,874.000000 265.500000,874.000000 
	C258.333344,874.000000 251.166672,874.000000 244.000000,874.000000 
"/>
<path fill="none" opacity="1.000000" stroke="#000000" stroke-linecap="round" stroke-linejoin="round" stroke-width="3.000000"
	d="
M672.500000,669.500000 
	C672.500000,687.834839 672.500000,706.169678 672.500000,725.000000 
	C760.999390,725.000000 848.999695,725.000000 937.000000,725.000000 
"/>
<path fill="none" opacity="1.000000" stroke="#000000" stroke-linecap="round" stroke-linejoin="round" stroke-width="2.000000"
	d="
M572.000000,924.500000 
	C597.834412,924.500000 623.668823,924.500000 650.000000,924.500000 
	C650.000000,941.163208 650.000000,957.331604 650.000000,973.500000 
"/>
<path fill="none" opacity="1.000000" stroke="#000000" stroke-linecap="round" stroke-linejoin="round" stroke-width="2.000000"
	d="
M891.500000,924.500000 
	C818.666687,924.500000 745.833313,924.500000 672.500000,924.500000 
	C672.500000,940.996643 672.500000,957.498291 672.500000,974.000000 
"/>
<path fill="none" opacity="1.000000" stroke="#000000" stroke-linecap="round" stroke-linejoin="round" stroke-width="2.000000"
	d="
M508.000000,973.500000 
	C508.000000,957.333313 508.000000,941.166687 508.000000,924.500000 
	C420.000641,924.500000 332.000305,924.500000 244.000000,924.500000 
"/>
<path fill="none" opacity="1.000000" stroke="#000000" stroke-linecap="round" stroke-linejoin="round" stroke-width="2.000000"
	d="
M781.500000,798.500000 
	C747.000000,798.500000 712.500000,798.510193 678.000061,798.465454 
	C676.511414,798.463562 674.894592,799.115540 673.500000,798.000000 
"/>
<path fill="none" opacity="1.000000" stroke="#000000" stroke-linecap="round" stroke-linejoin="round" stroke-width="2.000000"
	d="
M673.500000,854.500000 
	C709.500000,854.500000 745.500000,854.500000 781.500000,854.500000 
"/>
<path fill="none" opacity="1.000000" stroke="#000000" stroke-linecap="round" stroke-linejoin="round" stroke-width="2.000000"
	d="
M399.500000,798.500000 
	C435.333344,798.500000 471.166656,798.500000 507.000000,798.500000 
"/>
<path fill="none" opacity="1.000000" stroke="#000000" stroke-linecap="round" stroke-linejoin="round" stroke-width="2.000000"
	d="
M507.000000,854.500000 
	C471.166656,854.500000 435.333344,854.500000 399.500000,854.500000 
"/>
<path fill="none" opacity="1.000000" stroke="#000000" stroke-linecap="round" stroke-linejoin="round" stroke-width="3.000000"
	d="
M937.000000,740.000000 
	C935.833313,740.408569 934.662048,740.129089 933.500671,740.135071 
	C912.500732,740.242310 891.492432,739.391602 870.500977,740.518555 
	C870.159607,740.536865 869.833191,740.833008 869.250000,741.124268 
	C869.250000,751.166687 869.250000,761.333313 869.250000,772.000000 
	C891.997559,772.000000 914.498779,772.000000 937.000000,772.000000 
"/>
<path fill="none" opacity="1.000000" stroke="#000000" stroke-linecap="round" stroke-linejoin="round" stroke-width="2.000000"
	d="
M571.500000,974.000000 
	C571.500000,957.498291 571.500000,940.996643 571.500000,924.250000 
	C557.666687,924.250000 544.333313,924.250000 530.500000,924.250000 
	C530.500000,940.996643 530.500000,957.498291 530.500000,974.000000 
"/>
<path fill="none" opacity="1.000000" stroke="#000000" stroke-linecap="round" stroke-linejoin="round" stroke-width="3.000000"
	d="
M937.000000,799.000000 
	C917.333313,799.000000 897.666138,798.928101 878.000671,799.084534 
	C875.329102,799.105835 872.666687,797.622437 870.000000,799.000000 
"/>
<path fill="none" opacity="1.000000" stroke="#000000" stroke-linecap="round" stroke-linejoin="round" stroke-width="2.000000"
	d="
M244.000000,854.500000 
	C262.833344,854.500000 281.666656,854.500000 300.500000,854.500000 
"/>
<path fill="none" opacity="1.000000" stroke="#000000" stroke-linecap="round" stroke-linejoin="round" stroke-width="2.000000"
	d="
M391.500000,798.500000 
	C371.333344,798.500000 351.166656,798.500000 331.000000,798.500000 
"/>
<path fill="none" opacity="1.000000" stroke="#000000" stroke-linecap="round" stroke-linejoin="round" stroke-width="2.000000"
	d="
M787.500000,854.500000 
	C808.333313,854.500000 829.166687,854.500000 850.000000,854.500000 
"/>
<path fill="none" opacity="1.000000" stroke="#000000" stroke-linecap="round" stroke-linejoin="round" stroke-width="2.000000"
	d="
M788.500000,798.500000 
	C809.000000,798.500000 829.500000,798.500000 850.000000,798.500000 
"/>
<path fill="none" opacity="1.000000" stroke="#000000" stroke-linecap="round" stroke-linejoin="round" stroke-width="2.000000"
	d="
M331.000000,854.500000 
	C351.500000,854.500000 372.000000,854.500000 392.500000,854.500000 
"/>
<path fill="none" opacity="1.000000" stroke="#000000" stroke-linecap="round" stroke-linejoin="round" stroke-width="3.000000"
	d="
M892.000000,669.000000 
	C892.000000,688.166687 891.993347,707.333313 892.011658,726.500000 
	C892.013306,728.174438 891.698730,729.896790 892.500000,731.500000 
"/>
<path fill="none" opacity="1.000000" stroke="#000000" stroke-linecap="round" stroke-linejoin="round" stroke-width="3.000000"
	d="
M305.000000,669.000000 
	C305.000000,687.500000 305.000000,706.000000 305.000000,724.500000 
"/>
<path fill="none" opacity="1.000000" stroke="#000000" stroke-linecap="round" stroke-linejoin="round" stroke-width="2.000000"
	d="
M818.500000,669.000000 
	C818.500000,687.500000 818.500000,706.000000 818.500000,724.500000 
"/>
<path fill="none" opacity="1.000000" stroke="#000000" stroke-linecap="round" stroke-linejoin="round" stroke-width="3.000000"
	d="
M746.000000,669.000000 
	C746.000000,687.333313 746.000000,705.666687 746.000000,724.000000 
"/>
<path fill="none" opacity="1.000000" stroke="#000000" stroke-linecap="round" stroke-linejoin="round" stroke-width="2.000000"
	d="
M300.500000,914.500000 
	C300.500000,934.166687 300.500000,953.833313 300.500000,973.500000 
"/>
<path fill="none" opacity="1.000000" stroke="#000000" stroke-linecap="round" stroke-linejoin="round" stroke-width="3.000000"
	d="
M892.000000,916.500000 
	C892.000000,935.500000 892.000000,954.500000 892.000000,973.500000 
"/>
<path fill="none" opacity="1.000000" stroke="#000000" stroke-linecap="round" stroke-linejoin="round" stroke-width="2.000000"
	d="
M818.500000,925.500000 
	C818.500000,941.666687 818.500000,957.833313 818.500000,974.000000 
"/>
<path fill="none" opacity="1.000000" stroke="#000000" stroke-linecap="round" stroke-linejoin="round" stroke-width="2.000000"
	d="
M404.500000,925.500000 
	C404.500000,941.666687 404.500000,957.833313 404.500000,974.000000 
"/>
<path fill="none" opacity="1.000000" stroke="#000000" stroke-linecap="round" stroke-linejoin="round" stroke-width="3.000000"
	d="
M371.000000,925.500000 
	C371.000000,941.500000 371.000000,957.500000 371.000000,973.500000 
"/>
<path fill="none" opacity="1.000000" stroke="#000000" stroke-linecap="round" stroke-linejoin="round" stroke-width="3.000000"
	d="
M746.000000,925.500000 
	C746.000000,941.500000 746.000000,957.500000 746.000000,973.500000 
"/>
<path fill="none" opacity="1.000000" stroke="#000000" stroke-linecap="round" stroke-linejoin="round" stroke-width="3.000000"
	d="
M439.000000,925.500000 
	C439.000000,941.500000 439.000000,957.500000 439.000000,973.500000 
"/>
<path fill="none" opacity="1.000000" stroke="#000000" stroke-linecap="round" stroke-linejoin="round" stroke-width="2.000000"
	d="
M938.000000,924.000000 
	C934.711731,925.067993 931.330383,924.439209 927.999756,924.464661 
	C916.167114,924.555115 904.333313,924.500000 892.500000,924.500000 
"/>
<path fill="none" opacity="1.000000" stroke="#000000" stroke-linecap="round" stroke-linejoin="round" stroke-width="3.000000"
	d="
M305.000000,725.500000 
	C305.198975,728.164673 304.528412,730.883667 305.500000,733.500000 
"/>
</svg>